<svg width="24" height="25" viewBox="0 0 24 25" fill="none" xmlns="http://www.w3.org/2000/svg">
<path d="M15.9726 19.4043C15.9726 19.502 16.0839 19.5801 16.2242 19.5801C16.3839 19.5947 16.4952 19.5166 16.4952 19.4043C16.4952 19.3066 16.3839 19.2285 16.2435 19.2285C16.0984 19.2139 15.9726 19.292 15.9726 19.4043ZM17.4774 19.1846C17.5113 19.2822 17.4145 19.3945 17.2694 19.4238C17.1435 19.4727 16.9984 19.4238 16.9694 19.3262C16.9403 19.2285 17.0323 19.1162 17.1774 19.0723C17.3032 19.0381 17.4435 19.0869 17.4774 19.1846ZM15.3387 19.1016C15.479 19.1357 15.5758 19.2285 15.5613 19.3408C15.5468 19.4385 15.421 19.502 15.2758 19.4678C15.1355 19.4336 15.0387 19.3408 15.0532 19.2432C15.0677 19.1504 15.1984 19.0869 15.3387 19.1016ZM12.1548 0.390625C18.8661 0.390625 24 5.53223 24 12.3047C24 17.7197 20.6226 22.3535 15.7984 23.9844C15.179 24.0967 14.9613 23.7109 14.9613 23.3936C14.9613 23.0908 14.9758 21.4209 14.9758 20.3955C14.9758 20.3955 18.3629 21.1279 19.0742 18.9404C19.0742 18.9404 19.6258 17.5195 20.4194 17.1533C20.4194 17.1533 21.5274 16.3867 20.3419 16.4014C20.3419 16.4014 19.1371 16.499 18.4742 17.6611C17.4145 19.5459 15.6387 19.0039 14.9468 18.6816C14.8355 17.9004 14.521 17.3584 14.1726 17.0361C16.8774 16.7334 19.6065 16.3379 19.6065 11.6406C19.6065 10.2979 19.2387 9.62402 18.4645 8.76465C18.5903 8.44727 19.0016 7.13867 18.3387 5.44922C17.3274 5.13184 15 6.76758 15 6.76758C14.0323 6.49414 12.9919 6.35254 11.9613 6.35254C10.9306 6.35254 9.89032 6.49414 8.92258 6.76758C8.92258 6.76758 6.59516 5.12695 5.58387 5.44922C4.92097 7.14355 5.33226 8.44727 5.45807 8.76465C4.68387 9.62891 4.20968 10.3027 4.20968 11.6406C4.20968 16.3525 7.05968 16.7285 9.76452 17.0361C9.31936 17.4219 8.94194 18.1543 8.94194 19.3018C8.94194 20.9473 8.95645 22.9834 8.95645 23.3838C8.95645 23.7012 8.73387 24.0869 8.11935 23.9746C3.28065 22.3535 0 17.7197 0 12.3047C0 5.53223 5.44355 0.390625 12.1548 0.390625ZM19.2968 17.2314C19.3597 17.2803 19.3452 17.3926 19.2629 17.4854C19.1855 17.5635 19.0742 17.5977 19.0113 17.5342C18.9484 17.4854 18.9629 17.373 19.0452 17.2803C19.1226 17.2021 19.2339 17.168 19.2968 17.2314ZM19.8194 16.8359C19.8532 16.8994 19.8048 16.9775 19.7081 17.0264C19.6306 17.0752 19.5339 17.0605 19.5 16.9922C19.4661 16.9287 19.5145 16.8506 19.6113 16.8018C19.7081 16.7725 19.7855 16.7871 19.8194 16.8359ZM18.2516 18.5742C18.329 18.6377 18.3 18.7842 18.1887 18.877C18.0774 18.9893 17.9371 19.0039 17.8742 18.9258C17.8113 18.8623 17.8403 18.7158 17.9371 18.623C18.0435 18.5107 18.1887 18.4961 18.2516 18.5742ZM18.8032 17.8564C18.8806 17.9053 18.8806 18.0322 18.8032 18.1445C18.7258 18.2568 18.5952 18.3057 18.5323 18.2568C18.4548 18.1934 18.4548 18.0664 18.5323 17.9541C18.6 17.8418 18.7258 17.793 18.8032 17.8564Z" fill="#F6F6F6"/>
</svg>
