<svg width="28" height="26" viewBox="0 0 28 26" fill="none" xmlns="http://www.w3.org/2000/svg">
<path d="M14.0058 6.71099C10.3147 6.71099 7.33745 9.51646 7.33745 12.9946C7.33745 16.4727 10.3147 19.2782 14.0058 19.2782C17.6968 19.2782 20.6741 16.4727 20.6741 12.9946C20.6741 9.51646 17.6968 6.71099 14.0058 6.71099ZM14.0058 17.0797C11.6205 17.0797 9.67049 15.2477 9.67049 12.9946C9.67049 10.7415 11.6147 8.90943 14.0058 8.90943C16.3968 8.90943 18.341 10.7415 18.341 12.9946C18.341 15.2477 16.391 17.0797 14.0058 17.0797ZM22.5022 6.45396C22.5022 7.2688 21.8058 7.91958 20.9468 7.91958C20.0821 7.91958 19.3915 7.26333 19.3915 6.45396C19.3915 5.64458 20.0879 4.98833 20.9468 4.98833C21.8058 4.98833 22.5022 5.64458 22.5022 6.45396ZM26.9187 7.94146C26.82 5.97818 26.3441 4.23911 24.8178 2.8063C23.2973 1.37349 21.4517 0.925049 19.3683 0.826611C17.2209 0.711768 10.7848 0.711768 8.63745 0.826611C6.55978 0.91958 4.71424 1.36802 3.1879 2.80083C1.66157 4.23364 1.19148 5.97271 1.08701 7.93599C0.965137 9.95943 0.965137 16.0243 1.08701 18.0477C1.18567 20.011 1.66157 21.7501 3.1879 23.1829C4.71424 24.6157 6.55397 25.0641 8.63745 25.1626C10.7848 25.2774 17.2209 25.2774 19.3683 25.1626C21.4517 25.0696 23.2973 24.6211 24.8178 23.1829C26.3383 21.7501 26.8142 20.011 26.9187 18.0477C27.0406 16.0243 27.0406 9.96489 26.9187 7.94146ZM24.1446 20.2188C23.6919 21.2907 22.8156 22.1165 21.6723 22.5485C19.9602 23.1883 15.8977 23.0407 14.0058 23.0407C12.1138 23.0407 8.04549 23.1829 6.33924 22.5485C5.20174 22.1219 4.3254 21.2961 3.86692 20.2188C3.1879 18.6055 3.3446 14.7774 3.3446 12.9946C3.3446 11.2118 3.19371 7.37818 3.86692 5.77036C4.3196 4.69849 5.19594 3.87271 6.33924 3.44067C8.05129 2.80083 12.1138 2.94849 14.0058 2.94849C15.8977 2.94849 19.966 2.8063 21.6723 3.44067C22.8098 3.86724 23.6861 4.69302 24.1446 5.77036C24.8236 7.38364 24.6669 11.2118 24.6669 12.9946C24.6669 14.7774 24.8236 18.611 24.1446 20.2188Z" fill="#F6F6F6"/>
</svg>
