<svg width="24" height="24" viewBox="0 0 24 24" fill="none" xmlns="http://www.w3.org/2000/svg">
<path d="M5.37214 23.7396H0.396429V7.89053H5.37214V23.7396ZM2.88161 5.72857C1.29054 5.72857 0 4.42504 0 2.85126C1.13882e-08 2.09532 0.303597 1.37034 0.844003 0.835806C1.38441 0.301274 2.11736 0.000976562 2.88161 0.000976562C3.64586 0.000976562 4.3788 0.301274 4.91921 0.835806C5.45962 1.37034 5.76321 2.09532 5.76321 2.85126C5.76321 4.42504 4.47214 5.72857 2.88161 5.72857ZM23.9946 23.7396H19.0296V16.0244C19.0296 14.1856 18.9921 11.8276 16.4427 11.8276C13.8557 11.8276 13.4593 13.8253 13.4593 15.8919V23.7396H8.48893V7.89053H13.2611V10.0525H13.3307C13.995 8.80724 15.6177 7.49311 18.0386 7.49311C23.0743 7.49311 24 10.7731 24 15.0335V23.7396H23.9946Z" fill="#F6F6F6"/>
</svg>
