<svg width="31" height="22" viewBox="0 0 31 22" fill="none" xmlns="http://www.w3.org/2000/svg">
<path d="M29.5822 3.78579C29.2441 2.49243 28.2481 1.47382 26.9835 1.12814C24.6914 0.5 15.5 0.5 15.5 0.5C15.5 0.5 6.30874 0.5 4.01652 1.12814C2.75192 1.47387 1.75594 2.49243 1.4179 3.78579C0.803711 6.13008 0.803711 11.0212 0.803711 11.0212C0.803711 11.0212 0.803711 15.9124 1.4179 18.2566C1.75594 19.55 2.75192 20.5262 4.01652 20.8719C6.30874 21.5 15.5 21.5 15.5 21.5C15.5 21.5 24.6913 21.5 26.9835 20.8719C28.2481 20.5262 29.2441 19.55 29.5822 18.2566C30.1964 15.9124 30.1963 11.0212 30.1963 11.0212C30.1963 11.0212 30.1964 6.13008 29.5822 3.78579ZM12.4939 15.462V6.58043L20.1761 11.0213L12.4939 15.462Z" fill="#F6F6F6"/>
</svg>
