<svg width="209" height="51" viewBox="0 0 209 51" fill="none" xmlns="http://www.w3.org/2000/svg">
<path d="M49.9988 27.0991C49.0878 27.5261 48.0925 27.7433 47.0863 27.7347C45.4485 27.7347 44.9516 27.0939 44.9516 25.4218V21.0804H49.1131C49.3975 20.5116 49.5397 19.2661 49.5397 18.1285C49.5397 16.9532 49.3975 15.7437 49.1131 15.1749H44.9516V9.55028C42.1042 9.55028 39.3647 10.2253 37.4784 11.4006V15.1697H35.6298C35.0251 16.7356 34.6328 19.1547 34.6328 21.0753H37.4784V26.729C37.4784 30.714 38.5578 33.7876 44.0265 34.1302C47.5198 34.3478 50.2798 33.5597 52.2911 32.3913C51.0131 31.0515 50.2336 29.2526 49.9988 27.0991Z" fill="#F6F6F6"/>
<path d="M88.6325 32.7236C85.0741 34.1474 82.6962 34.1388 80.7396 34.1388C74.7621 34.1388 71.4521 30.4742 71.4521 24.6388C71.4521 17.9572 75.6873 14.4639 81.5209 14.4639C83.2341 14.4639 86.0832 15.1132 88.6907 16.8915V22.2283C86.676 20.9245 84.937 20.5151 83.3369 20.5151C80.7396 20.5151 79.0675 21.4402 79.0675 24.1797C79.0675 26.9192 80.8458 27.9163 83.4431 27.9163C84.937 27.9163 87.2448 27.1299 88.6325 26.5611V32.7236Z" fill="#F6F6F6"/>
<path d="M70.1295 27.2704C68.7057 27.8632 65.675 28.6238 63.1994 28.6238C60.2869 28.6238 59.1424 28.1613 58.8237 26.5251H68.7486C69.1244 25.3274 69.3167 24.0798 69.3191 22.8245C69.3191 17.7721 66.7578 14.4639 60.8865 14.4639C55.1591 14.4639 51.2084 18.4472 51.2084 24.5326C51.2084 30.4382 54.7908 33.2702 61.1709 34.1388C63.8453 34.5037 68.9456 34.1474 71.6731 31.6563L71.6285 31.5278C70.8353 30.3559 70.3299 28.922 70.1295 27.2704ZM60.7443 19.4871C62.2742 19.4871 62.879 20.5151 62.5946 21.9062H58.5736C58.6456 20.2632 59.4628 19.4871 60.7443 19.4871Z" fill="#F6F6F6"/>
<path d="M98.0297 33.0354C97.3187 33.3918 96.0731 33.6042 94.2931 33.6042C92.513 33.6042 91.2692 33.3918 90.5582 33.0354V7.91584C92.3006 6.9924 94.7557 6.49385 98.0297 6.49385V11.1899C98.0382 13.3784 97.8084 15.5614 97.3444 17.7002H97.7727C98.84 15.5312 100.654 14.4639 103.606 14.4639C106.168 14.4639 109.406 15.353 109.406 21.3648V33.0354C108.695 33.3918 107.449 33.6042 105.671 33.6042C103.892 33.6042 102.647 33.3918 101.934 33.0354V22.8605C101.934 21.6509 101.544 20.9759 100.404 20.9759C99.3369 20.9759 98.5196 21.7229 98.0211 22.648L98.0297 33.0354Z" fill="#F6F6F6"/>
<path d="M150.052 23.9981C150.052 30.6164 146.354 34.1388 140.412 34.1388C134.15 34.1388 130.734 30.7945 130.734 23.9981C130.734 17.9863 134.755 14.4639 140.412 14.4639C146.273 14.4639 150.052 17.7739 150.052 23.9981ZM140.412 28.4097C141.906 28.4097 142.404 26.8438 142.404 24.07C142.404 21.6852 141.719 20.1913 140.412 20.1913C139.024 20.1913 138.384 21.6509 138.384 24.07C138.375 26.8095 139.052 28.4097 140.403 28.4097H140.412Z" fill="#F6F6F6"/>
<path d="M122.197 14.4639C125.031 14.4981 127.792 15.3631 130.139 16.9515L130.165 16.9858C129.277 18.332 128.699 19.8587 128.472 21.4556C127.302 20.9108 125.423 20.5116 123.93 20.5116C121.333 20.5116 119.661 21.4368 119.661 24.1763C119.661 26.9157 121.439 27.9128 124.037 27.9128C125.597 27.8822 127.136 27.5452 128.567 26.9209C128.895 28.8329 129.535 30.4262 130.47 31.7008C130.482 31.7334 130.496 31.7762 130.496 31.7762C128.125 34.3855 122.67 34.1474 121.333 34.1388C115.356 34.096 112.047 30.4742 112.047 24.6388C112.047 17.9572 116.281 14.4639 122.116 14.4639H122.197Z" fill="#F6F6F6"/>
<path d="M163.136 7.91584C164.881 6.9924 167.336 6.49385 170.61 6.49385V32.7065C169.256 33.4175 167.157 33.8098 165.059 33.8098L164.101 30.8648H163.674C163.14 32.2885 161.433 34.1388 158.192 34.1388C154.95 34.1388 151.289 32.2885 151.289 25.3498C151.289 18.5551 154.706 14.4639 160.113 14.4639C161.288 14.4639 162.283 14.6061 163.136 15.0686V7.91584ZM163.208 20.9022C162.797 20.7094 162.347 20.6122 161.893 20.6178C159.97 20.6178 158.98 22.0416 158.98 24.4607C158.98 26.8095 159.905 27.7689 161.257 27.7689C161.621 27.7685 161.981 27.6961 162.317 27.5558C162.653 27.4156 162.957 27.2103 163.213 26.9517L163.208 20.9022Z" fill="#F6F6F6"/>
<path d="M200.103 28.8723C201.205 28.8723 201.455 28.5519 201.455 28.0893C201.455 26.3761 193.983 27.6987 193.983 20.9022C193.983 16.811 196.509 14.4639 201.383 14.4639C203.411 14.4639 205.474 14.8185 207.004 15.6374C207.929 16.9892 208.464 19.5162 208.143 21.2912C206.471 20.366 204.122 19.6893 202.45 19.6893C201.594 19.6893 201.422 19.9394 201.422 20.294C201.422 22.0073 209 20.7566 209 27.2687C209 32.3913 205.762 34.1354 200.533 34.1354C198.611 34.1354 196.476 33.9212 194.734 33.2445C193.666 31.6803 193.31 28.7986 193.666 27.2687C195.335 28.1972 197.861 28.8723 200.103 28.8723Z" fill="#F6F6F6"/>
<path d="M191.549 27.5394C188.474 28.3412 187.896 28.6204 185.409 28.6204C182.496 28.6204 181.353 28.1578 181.033 26.5217H190.96C191.335 25.3239 191.526 24.0762 191.528 22.8211C191.528 17.7687 188.967 14.4604 183.096 14.4604C177.368 14.4604 173.419 18.4437 173.419 24.5292C173.419 30.4347 176.976 33.4706 183.38 34.1354C185.738 34.3786 190.759 34.1473 192.584 32.4221C191.871 31.0275 191.525 29.095 191.549 27.5394ZM182.947 19.4871C184.477 19.4871 185.081 20.515 184.797 21.9062H180.776C180.855 20.2632 181.674 19.4871 182.947 19.4871Z" fill="#F6F6F6"/>
<path d="M23.154 13.573C23.7305 13.8738 24.2134 14.3269 24.5505 14.883C24.8876 15.439 25.0659 16.0768 25.066 16.7271V28.9785L7.36126 19.727C5.44301 18.7233 3.83611 17.2137 2.71475 15.3618C1.59339 13.5098 1.00038 11.3863 1 9.22133V2L23.154 13.573Z" fill="#F6F6F6" stroke="#F7F7F7" stroke-width="1.71325" stroke-miterlimit="10"/>
<path d="M1 48.6654L23.1626 37.0924C23.739 36.7916 24.222 36.3385 24.5591 35.7824C24.8962 35.2264 25.0744 34.5886 25.0745 33.9383V28.9699L18.1513 25.355L18.0931 25.3241L7.36984 30.923C5.44766 31.9267 3.83749 33.4383 2.71442 35.2932C1.59135 37.1482 0.998385 39.2756 1 41.4441V48.6654Z" fill="#F6F6F6" stroke="#F7F7F7" stroke-width="1.71325" stroke-miterlimit="10"/>
</svg>
