<?xml version="1.0" standalone="no"?>
<!DOCTYPE svg PUBLIC "-//W3C//DTD SVG 20010904//EN"
 "http://www.w3.org/TR/2001/REC-SVG-20010904/DTD/svg10.dtd">
<svg version="1.0" xmlns="http://www.w3.org/2000/svg"
 width="992.000000pt" height="992.000000pt" viewBox="0 0 992.000000 992.000000"
 preserveAspectRatio="xMidYMid meet">
<metadata>
Created by potrace 1.11, written by Peter Selinger 2001-2013
</metadata>
<g transform="translate(0.000000,992.000000) scale(0.100000,-0.100000)"
fill="#000000" stroke="none">
<path d="M5220 8610 l0 -110 -90 0 -90 0 0 -1725 0 -1725 1700 0 1700 0 0 105
0 105 90 0 90 0 0 1730 0 1730 -1700 0 -1700 0 0 -110z m1850 -494 c393 -48
725 -279 895 -626 38 -76 78 -199 95 -290 16 -85 17 -347 1 -430 -72 -388
-327 -700 -686 -842 -162 -64 -258 -82 -440 -81 -170 0 -239 10 -381 58 -569
191 -879 791 -719 1395 47 176 170 386 296 506 204 192 443 293 754 317 22 2
47 4 55 5 8 1 67 -5 130 -12z"/>
<path d="M6865 7481 c-65 -11 -119 -34 -150 -65 -22 -22 -25 -34 -25 -96 l0
-70 125 0 c77 0 125 -4 125 -10 0 -6 -74 -10 -203 -10 l-203 0 -26 -27 c-78
-84 -98 -252 -47 -388 29 -77 56 -98 133 -103 l63 -4 6 69 c16 172 52 203 234
203 131 0 219 13 246 37 34 31 46 77 53 205 8 143 -3 184 -58 218 -61 38 -180
55 -273 41z m-35 -91 c24 -24 25 -38 3 -62 -31 -35 -73 -16 -73 34 0 15 8 31
18 37 24 15 29 14 52 -9z"/>
<path d="M7217 7155 c-4 -45 -15 -92 -27 -115 -32 -64 -61 -73 -250 -80 -100
-4 -174 -11 -187 -18 -47 -26 -58 -65 -61 -233 l-4 -155 36 -32 c53 -46 129
-65 245 -60 82 3 103 8 148 32 63 34 85 75 81 144 l-3 47 -127 3 c-202 4 -150
21 76 24 199 3 205 4 229 26 49 46 71 117 72 227 0 115 -19 186 -65 235 -26
27 -34 30 -93 30 l-64 0 -6 -75z m-97 -545 c15 -29 3 -59 -26 -66 -30 -8 -54
11 -54 40 0 46 59 64 80 26z"/>
<path d="M1150 6775 l0 -1725 1700 0 1700 0 0 1725 0 1725 -1700 0 -1700 0 0
-1725z m1890 1074 c403 -49 681 -274 811 -655 26 -78 69 -232 69 -248 0 -3
-123 -6 -273 -6 l-274 0 -27 89 c-51 167 -136 256 -290 306 -76 25 -95 27
-203 24 -114 -4 -122 -6 -195 -41 -137 -68 -243 -209 -290 -387 -29 -110 -29
-315 0 -430 45 -175 160 -326 297 -391 63 -30 81 -34 179 -38 127 -5 191 6
292 54 114 54 167 122 219 282 l27 82 266 -2 267 -3 -3 -25 c-13 -106 -91
-330 -148 -424 -131 -216 -278 -340 -482 -405 -285 -90 -606 -78 -845 32 -242
112 -423 300 -533 555 -64 147 -86 255 -91 448 -9 302 48 527 192 749 137 211
402 383 656 425 41 6 81 13 89 15 38 7 214 4 290 -6z"/>
<path d="M1330 4720 l0 -110 -90 0 -90 0 0 -1725 0 -1725 1700 0 1699 0 3 108
3 107 88 3 87 3 0 1724 0 1725 -1700 0 -1700 0 0 -110z m1865 -534 c202 -47
345 -109 481 -207 291 -209 435 -545 403 -940 -27 -334 -189 -611 -454 -777
-85 -53 -235 -118 -337 -147 -197 -54 -230 -57 -720 -62 l-458 -5 0 1089 0
1088 482 -5 483 -5 120 -29z"/>
<path d="M2770 3566 c0 -32 -4 -37 -37 -51 -36 -15 -39 -15 -55 4 -9 12 -19
21 -22 21 -3 0 -6 -117 -6 -259 0 -223 2 -260 15 -265 14 -5 14 -9 0 -41 l-14
-36 32 -14 c72 -30 83 -29 93 6 8 29 13 32 48 33 35 1 41 -2 53 -32 15 -36 18
-36 90 -6 31 12 32 14 21 44 -9 28 -8 34 17 60 l28 30 33 -20 32 -20 26 46
c14 26 26 50 26 55 0 5 -13 15 -29 23 -28 15 -29 17 -19 56 9 34 15 40 44 46
26 5 33 11 30 23 -2 9 -7 35 -11 57 -6 42 -7 42 -43 37 -33 -4 -39 -1 -55 28
-18 32 -18 33 2 60 12 16 21 30 21 32 0 2 -18 18 -41 36 l-41 33 -26 -25 c-25
-23 -30 -24 -62 -12 -31 10 -35 16 -35 46 l-1 34 -57 3 -57 3 0 -35z m120
-185 c136 -72 87 -281 -66 -281 -150 0 -198 209 -64 278 54 27 84 28 130 3z"/>
<path d="M3390 3431 c0 -16 -6 -21 -25 -21 -13 0 -28 7 -33 16 -8 15 -11 15
-36 -1 -19 -13 -25 -23 -20 -37 8 -27 -13 -49 -41 -42 -18 4 -24 0 -29 -22 -5
-20 -3 -31 8 -40 16 -11 23 -54 9 -54 -5 0 -14 -4 -21 -8 -20 -13 3 -64 26
-60 30 5 54 -20 41 -44 -8 -16 -7 -23 8 -34 22 -16 40 -18 48 -4 3 6 17 10 31
10 18 0 24 -5 24 -21 0 -17 5 -20 33 -17 26 2 32 7 30 24 -3 28 40 50 57 29
10 -13 15 -11 32 10 16 21 18 28 8 40 -10 12 -10 21 0 45 10 24 9 42 -5 101
-11 46 -23 72 -34 76 -34 10 -46 21 -43 42 2 12 -2 21 -10 21 -7 0 -23 3 -35
6 -19 5 -23 2 -23 -15z m55 -126 c62 -61 -3 -162 -86 -133 -34 12 -63 64 -52
95 22 64 93 84 138 38z"/>
<path d="M3210 3051 c-30 -5 -35 -9 -32 -32 3 -36 -42 -58 -69 -33 -11 10 -20
15 -22 13 -1 -2 -13 -16 -26 -31 -23 -26 -23 -29 -7 -46 24 -27 6 -72 -29 -72
-23 0 -25 -4 -25 -40 0 -36 3 -40 24 -40 32 0 48 -56 21 -76 -13 -9 -14 -17
-6 -32 18 -34 38 -45 60 -32 29 15 61 -3 61 -35 0 -31 1 -31 63 1 108 54 227
164 227 209 0 14 8 25 20 28 22 6 25 23 10 61 -8 22 -13 24 -34 16 -20 -7 -27
-5 -41 16 -12 18 -13 29 -5 43 14 27 14 29 -22 47 -30 16 -33 15 -47 -2 -23
-28 -71 -20 -71 11 0 30 -6 33 -50 26z m113 -181 c19 -22 27 -41 27 -68 0
-113 -147 -146 -196 -44 -14 29 -14 41 -5 74 24 80 117 100 174 38z"/>
<path d="M5040 2885 l0 -1725 1700 0 1700 0 0 1725 0 1725 -1700 0 -1700 0 0
-1725z m2430 845 l0 -230 -465 0 -465 0 0 -190 0 -190 450 0 450 0 0 -235 0
-235 -447 -2 -448 -3 -3 -202 -2 -203 465 0 465 0 0 -230 0 -230 -740 0 -740
0 0 1090 0 1090 740 0 740 0 0 -230z"/>
</g>
</svg>
