<svg width="250" height="44" viewBox="0 0 250 44" fill="none" xmlns="http://www.w3.org/2000/svg">
<path d="M61.9194 33.3662L62.3097 30.5353C64.122 31.6732 67.1052 33.0887 71.0642 33.0887C75.6365 33.0887 78.2015 31.3124 78.2015 28.1762C78.2015 19.9333 61.6127 25.4286 61.6127 14.7711C61.6127 9.71988 64.9584 7 70.9805 7C76.7796 7 79.5398 9.35908 80.0416 13.3279L77.1978 13.883C76.7517 10.9133 74.7165 9.49785 70.9248 9.49785C66.91 9.49785 64.5402 11.2741 64.5402 14.4936C64.5402 23.0973 80.9895 17.1302 81.1011 28.1207C81.1289 33.2552 77.7833 35.7808 71.1199 35.7808C66.213 35.7253 63.4528 34.3654 61.9194 33.3662Z" fill="#2D9CDB"/>
<path d="M88.5172 18.8232V30.5909C88.5172 32.7557 89.493 33.2552 90.9707 33.2552C92.3368 33.2552 93.229 32.8667 93.8423 32.6169L94.0654 35.087C93.3963 35.309 92.1416 35.7253 90.2458 35.7253C87.3184 35.7253 85.6734 34.6984 85.6734 30.6186V18.8232H82.1605V16.4363H85.6734V10.9411H88.5172V16.4363H94.5115V18.8232H88.5172V18.8232Z" fill="#2D9CDB"/>
<path d="M106.723 16.2975L106.528 19.0729C106.305 18.9896 105.775 18.9064 105.078 18.9064C102.234 18.9064 100.422 22.2368 100.422 25.2898V35.2257H97.5783V16.4363H100.06L100.255 20.0443C101.314 17.6574 103.015 16.0477 105.022 16.0477C105.914 16.0477 106.416 16.1865 106.723 16.2975Z" fill="#2D9CDB"/>
<path d="M124.316 33.7825C123.34 34.6151 120.803 35.753 116.899 35.753C110.821 35.753 107.783 32.145 107.783 26.0114C107.783 20.2108 110.766 16.0477 117.122 16.0477C122.141 16.0477 124.204 18.6288 124.204 21.4597C124.204 26.2334 120.134 27.7321 110.766 28.1207C111.351 31.8397 113.721 33.2551 117.122 33.2551C120.44 33.2551 122.949 31.8397 123.758 31.2013L124.316 33.7825ZM110.626 25.8448C118.823 25.5395 121.388 24.6237 121.388 21.654C121.388 20.1553 120.329 18.5178 117.039 18.5178C113.554 18.5178 110.71 20.4328 110.626 25.8448Z" fill="#2D9CDB"/>
<path d="M143.469 16.4363V35.2812H141.099L140.793 32.5613C139.538 34.4486 137.391 35.753 134.436 35.753C129.39 35.753 126.128 32.2282 126.128 26.2056C126.128 19.85 129.724 16.0477 134.826 16.0477C137.698 16.0477 139.678 17.1579 140.821 18.7676L141.099 16.464H143.469V16.4363ZM140.626 27.9264V24.5404C140.626 21.9038 139.287 18.49 135.105 18.49C131.202 18.49 128.944 21.432 128.944 26.1779C128.944 30.7295 131.035 33.2274 134.826 33.2274C138.451 33.2551 140.626 30.9516 140.626 27.9264Z" fill="#2D9CDB"/>
<path d="M176.061 23.5413V35.2812H173.218V23.9853C173.218 20.5993 171.879 18.6011 168.924 18.6011C165.383 18.6011 163.404 21.3487 163.404 23.8466V35.2534H160.616V23.7633C160.616 20.4606 159.25 18.5733 156.35 18.5733C152.809 18.5733 150.858 21.3487 150.858 23.8743V35.2534H148.014V16.4363H150.216L150.607 19.6557C151.75 17.5742 153.924 16.0477 157.075 16.0477C160.03 16.0477 162.038 17.4076 162.902 19.961C164.017 17.6852 166.303 16.0477 169.593 16.0477C173.747 16.0477 176.061 18.5456 176.061 23.5413Z" fill="#2D9CDB"/>
<path d="M200.763 7.41631L190.503 24.5682V35.2812H185.178V24.5682L174.918 7.41631H180.913L187.883 19.6558L194.909 7.41631H200.763Z" fill="#2D9CDB"/>
<path d="M215.763 16.4363V35.2812H211.832L211.191 32.9776C209.936 34.6706 207.845 35.753 205.113 35.753C200.094 35.753 196.609 32.1727 196.609 26.1779C196.609 19.85 200.429 16.0477 205.475 16.0477C208.124 16.0477 209.964 17.0191 211.163 18.4345L211.609 16.4363H215.763V16.4363ZM210.549 27.2325V24.5126C210.354 22.3201 209.099 20.4051 206.339 20.4051C203.551 20.4051 201.655 22.3756 201.655 26.0946C201.655 29.5916 203.3 31.3956 206.144 31.3956C208.932 31.3679 210.549 29.6194 210.549 27.2325Z" fill="#2D9CDB"/>
<path d="M230.623 16.353L230.316 21.2654C230.01 21.1544 229.452 20.9879 228.588 20.9879C226.581 20.9879 224.713 22.7919 224.713 26.3722V35.2812H219.471V16.4363H223.681L224.127 19.2672C225.159 17.2966 226.72 16.0477 228.699 16.0477C229.703 16.0477 230.372 16.242 230.623 16.353Z" fill="#2D9CDB"/>
<path d="M250 7.41631V35.2812H245.623L245.121 33.1164C243.755 34.6429 241.692 35.7531 238.932 35.7531C234.331 35.7531 230.93 32.6169 230.93 26.2057C230.93 19.7946 234.526 16.0478 240.242 16.0478C242.138 16.0478 243.643 16.4086 244.786 16.8804V7.41631H250ZM244.758 26.622V21.5708C243.838 20.9325 242.556 20.4051 240.827 20.4051C238.039 20.4051 236.171 22.2091 236.171 26.1225C236.171 29.897 237.9 31.3679 240.158 31.3679C242.667 31.3679 244.758 29.5084 244.758 26.622Z" fill="#2D9CDB"/>
<path d="M45.6374 24.8675C45.1355 24.5345 44.6337 24.1737 44.1597 23.8406C41.0929 21.7036 37.4684 18.0123 36.7714 17.2907C36.409 15.1814 35.7677 12.628 33.7325 9.68612C32.1433 6.91073 29.2716 5.301 27.543 4.55164C26.0654 0.777109 18.7607 0.222031 15.9448 0.0277535C15.6103 -4.23905e-07 15.2757 0 14.9411 0C9.36508 0 8.22199 3.80229 7.99894 5.38426C6.60493 5.46752 5.40608 5.80057 4.37451 6.3834C1.16827 8.24292 0.276102 11.9897 0.0809398 14.7928C-0.086342 17.4017 0.0530595 18.4286 0.0809398 18.6229C0.303982 20.7322 0.889468 22.3142 3.09201 24.0349C1.64224 30.5571 1.11251 38.1616 1.08463 38.2449L1.05675 38.4392L1.16827 38.6057C1.27979 38.7722 4.26298 42.63 10.8149 43.0186C11.0937 43.0463 11.4003 43.0463 11.6791 43.0463C18.8444 43.0463 21.4651 37.5233 21.5767 37.3013L21.6882 37.0792L21.6045 36.8572C21.6045 36.8572 20.9633 35.1087 21.9391 31.8893C22.7476 29.2249 25.6193 28.7531 26.3721 28.6976C29.8292 31.3064 39.4479 36.3021 41.9571 37.3013C43.2118 37.8008 44.4106 38.0784 45.4701 38.0784C46.7247 38.0784 47.6726 37.6898 48.1187 37.0237C48.8715 35.8303 48.7321 34.6924 47.7005 33.6655C47.9793 33.721 48.3139 33.7488 48.6763 33.8043C49.0109 33.8598 49.457 33.8875 49.8752 33.8875C51.4086 33.8875 52.2729 33.1659 52.4959 31.6672C52.7468 29.8632 49.9588 27.7817 45.6374 24.8675ZM11.707 42.519C11.6791 42.519 11.6791 42.519 11.6513 42.519C11.7628 42.519 11.8743 42.519 12.0137 42.519C11.9022 42.519 11.8185 42.519 11.707 42.519ZM14.8296 0.582832C14.8575 0.582832 14.9133 0.582832 14.9411 0.582832C15.0248 0.582832 15.0805 0.582832 15.1642 0.582832C15.0805 0.582832 14.9411 0.555078 14.8296 0.582832ZM18.705 0.888125C19.0953 0.943633 19.5135 0.999141 19.9317 1.05465C19.5135 0.999141 19.0953 0.915879 18.705 0.888125Z" fill="#0B2946"/>
<path d="M44.0203 24.3123C40.5352 21.8977 36.4368 17.5681 36.4368 17.5681C36.0744 15.3478 35.461 12.9055 33.4536 10.0191C31.8366 7.18816 28.7976 5.63394 27.2921 4.9956C26.1769 1.38759 18.8722 0.804753 16.1121 0.610475C8.55651 0.0553965 8.69591 6.18902 8.69591 6.18902L5.99152 15.098L3.95626 23.7017C2.39496 30.3627 1.86523 38.3003 1.86523 38.3003C1.86523 38.3003 4.70902 42.1026 11.0936 42.4912C18.6213 42.9352 21.2978 37.0791 21.2978 37.0791C21.2978 37.0791 20.5729 35.2196 21.6324 31.7504C22.6918 28.2811 26.7902 28.1424 26.7902 28.1424C30.108 30.7235 39.9497 35.8302 42.4032 36.8016C45.3027 37.9673 47.338 37.5787 47.8677 36.7461C48.3975 35.9135 48.6205 34.8588 47.0313 33.6377C45.9998 32.8605 45.3864 32.4442 45.3864 32.4442C46.5574 32.7218 46.6968 32.9993 48.9829 33.2769C50.6 33.4711 51.8825 33.4711 52.1613 31.6394C52.3843 29.7521 47.7005 26.8657 44.0203 24.3123Z" fill="#0B2946"/>
<path d="M11.8464 37.7174C7.44127 37.5787 4.87629 36.0799 4.012 35.4971L3.70531 37.6619C3.70531 37.6619 7.07883 40.8259 11.5397 40.8259C13.1289 40.8259 16.2514 40.9924 19.3183 36.9958C19.3183 36.9958 19.2068 36.1632 19.2625 34.9975C18.1473 36.0799 16.5024 37.8562 11.8464 37.7174Z" fill="#FEFFFF"/>
<path d="M3.70531 35.2751C3.70531 35.2751 3.81684 35.3584 4.012 35.4972L4.03988 35.2474L3.70531 35.2751Z" fill="#0B2946"/>
<path d="M19.7923 34.4983L19.2904 34.526C19.2904 34.6926 19.2626 34.8313 19.2626 34.9979C19.4577 34.8036 19.625 34.6371 19.7923 34.4983Z" fill="#0B2946"/>
<path d="M34.1227 14.6538C32.3105 10.241 28.9928 6.74398 25.2847 5.55056C21.5766 4.35714 15.9727 3.27474 14.2441 7.43783C14.2441 7.43783 6.04727 21.5923 5.51754 24.9228L4.06777 35.2473L4.03989 35.4971C4.8763 36.0799 7.46916 37.5786 11.8743 37.7174C16.5303 37.8561 18.2031 36.0799 19.2904 34.9697C19.2904 34.831 19.3183 34.6644 19.3183 34.4979C19.4577 32.9159 19.8759 30.8899 21.1305 29.3357C23.5003 26.3938 27.6266 26.2827 27.6266 26.2827C27.6266 26.2827 30.7492 26.6435 32.9239 24.3955C35.0985 22.1474 35.9071 19.0945 34.1227 14.6538Z" fill="#016666"/>
<path d="M36.7993 26.9215C36.7993 26.9215 39.8662 29.6414 40.9814 30.585C42.0966 31.5286 46.7526 34.7758 46.7805 35.4974C46.7805 35.664 35.0987 30.1687 35.0987 30.1687C35.0987 30.1687 25.0896 23.2579 25.1454 23.0637C25.2011 22.8694 25.5636 21.4817 25.7866 21.3984C26.0097 21.3152 30.7214 21.4817 30.7214 21.4817L36.7993 26.9215Z" fill="#79455B"/>
<path d="M25.7308 23.2023C26.5394 23.3133 31.1117 25.0341 33.7604 27.1989C36.4369 29.3637 40.9256 32.4721 42.236 33.0827C43.5463 33.721 46.8641 35.081 46.7805 35.6083C46.6968 36.1356 46.3065 37.0238 43.2675 35.8303C40.2286 34.6092 32.3385 29.9465 31.2232 29.1972C30.108 28.4478 24.4762 24.6178 24.4762 24.6178L25.7308 23.2023Z" fill="#C8842C"/>
<path d="M16.7534 14.4877C17.8687 14.2657 21.2422 14.2934 23.835 16.7913C26.4279 19.2891 26.874 21.2874 26.1491 23.0637C25.4242 24.8399 24.086 26.1721 21.4095 24.7567C18.7329 23.3412 16.168 21.5927 15.3594 19.4279C14.5509 17.2631 16.7534 14.4877 16.7534 14.4877Z" fill="#02A484"/>
<path d="M0.833743 18.595C1.08467 20.8431 1.72591 22.3418 4.34666 24.1736C5.54551 25.0062 6.82801 25.6723 9.56027 25.4503C12.3204 25.2282 14.272 23.3965 15.1921 21.3982C16.1121 19.3999 17.6734 14.7928 16.5303 11.0737C15.4151 7.35471 13.3241 6.85514 12.2925 6.52209C11.261 6.16129 7.60865 5.30092 4.82063 6.91064C2.0326 8.52037 1.00102 11.7953 0.805862 14.876C0.638581 17.6792 0.833743 18.595 0.833743 18.595Z" fill="#0B2946"/>
<path d="M5.68481 8.68679C5.68481 8.68679 7.10671 7.77091 9.75534 8.32599C12.404 8.88107 14.0489 10.7683 14.0489 13.0719C14.0489 15.3755 13.7701 19.5386 11.6233 21.6479C9.86686 23.3686 5.26661 24.2567 3.42651 20.7597C1.58641 17.2628 6.1309 14.6816 6.1309 14.6816L5.68481 8.68679Z" fill="#2D9BDA"/>
<path d="M19.5972 11.0737C19.2348 9.93584 20.1827 8.46488 22.5804 7.96531C24.9781 7.46574 27.4595 7.96531 28.742 10.2134C30.0244 12.4614 27.5989 13.5716 26.2048 13.8769C24.8108 14.1822 20.4894 13.8769 19.5972 11.0737Z" fill="#02A484"/>
<path d="M22.9428 15.3759C23.1659 13.7384 24.2253 12.545 25.2848 12.434C25.7866 12.3785 26.177 12.6282 26.4558 12.989C26.3164 12.545 26.0933 12.1564 25.8145 11.8234C24.6435 10.5467 22.3852 11.5736 21.6882 14.0992C20.9912 16.6248 21.967 18.6508 22.9707 18.9284C23.4447 19.0672 23.835 19.0394 24.1975 18.9561C24.1138 18.9284 24.0581 18.9284 23.9744 18.8729C22.4689 18.1235 22.8592 15.9865 22.9428 15.3759Z" fill="#FDFFFF"/>
<path d="M26.4557 12.9888C26.8739 14.2655 26.6509 15.8753 26.1769 16.8466C25.7029 17.7903 25.0896 18.6784 24.1695 18.9282" fill="#0B2946"/>
<path d="M26.1769 16.8467C26.6509 15.8753 26.8461 14.2656 26.4557 12.9889C26.1769 12.6281 25.7587 12.3783 25.2848 12.4338C24.2253 12.5448 23.138 13.7383 22.9428 15.3757C22.8592 15.9863 22.4967 18.1511 23.9744 18.845C24.058 18.8727 24.1138 18.9005 24.1974 18.9282C25.1175 18.6785 25.7309 17.7903 26.1769 16.8467Z" fill="#0B2946"/>
<path d="M48.5369 30.6958C47.8399 30.0297 46.9477 29.2803 47.2266 28.9473C47.3938 28.753 47.812 28.7253 48.4254 28.9473C47.1429 28.0592 45.498 26.9768 43.7415 25.7556C39.7825 23.008 35.0986 18.6506 34.6247 18.3175C33.0076 17.1519 32.7288 18.4008 32.7009 19.0114C32.673 19.622 32.673 20.3713 31.2511 21.0097C29.8292 21.648 28.1843 21.0374 27.2085 20.8987C26.2327 20.7599 26.3163 21.537 26.7903 21.9256C28.3795 23.2022 44.801 31.1399 48.2581 31.8337C48.3696 31.8615 48.4533 31.8615 48.5648 31.8892C48.7042 31.6672 49.0388 31.1676 48.5369 30.6958Z" fill="#FFCC34"/>
<path d="M50.9068 31.3896C51.0184 30.9455 49.9868 30.0851 48.3976 28.9472C47.7843 28.6974 47.366 28.753 47.1988 28.9472C46.9478 29.2525 47.84 30.0296 48.5091 30.6957C49.011 31.1675 48.7043 31.6671 48.4813 31.8891C50.3771 32.2499 50.7396 32.1667 50.9068 31.3896Z" fill="#C8842C"/>
<path d="M34.2622 22.1199C34.541 22.8138 35.9072 23.5631 36.632 23.3966C37.3848 23.2301 37.0224 22.4807 36.1023 21.5926C35.1823 20.7322 33.7325 20.76 34.2622 22.1199Z" fill="#C8842C"/>
<path d="M7.60864 25.034L7.77592 40.4097L9.67178 40.9925L9.42086 25.034H7.60864Z" fill="#0B2946"/>
<path d="M11.4562 19.4555C9.97851 22.786 7.49716 22.675 5.37826 22.1477C3.14783 21.5926 2.56235 19.4 2.47871 17.3462C2.45083 16.2361 2.86903 11.6289 4.31881 9.74166C5.76858 7.8544 8.44509 8.32621 9.25362 8.54824C10.0621 8.77027 13.0732 10.2412 12.6271 13.8492C12.1811 17.6515 12.0138 18.2066 11.4562 19.4555Z" fill="white"/>
<path d="M4.03992 18.7061L4.51388 17.0408C4.51388 17.0408 6.52126 18.0955 7.46919 17.7069C8.38924 17.3184 7.97104 16.347 6.93947 15.9307C5.9079 15.4866 4.56964 14.7928 5.09937 12.739C5.62909 10.6852 7.02311 10.0746 10.3687 11.3235L9.75538 13.0998C9.75538 13.0998 7.02311 11.7398 6.77219 13.183C6.6049 14.2654 10.536 14.4042 9.83902 17.4294C8.86321 21.2317 4.03992 18.7061 4.03992 18.7061Z" fill="#2D9BDA"/>
</svg>
